<svg xmlns="http://www.w3.org/2000/svg" viewBox="0 0 24 24" width="24" height="24">
  <defs>
    <linearGradient id="bg" x1="0" y1="0" x2="24" y2="24" gradientUnits="userSpaceOnUse">
      <stop offset="0" stop-color="#B45309" />
      <stop offset="1" stop-color="#78350F" />
    </linearGradient>
  </defs>
  <rect width="24" height="24" rx="6" fill="url(#bg)" />
  <g transform="translate(4.2 4.2) scale(0.65)" fill="none" stroke="#ffffff" stroke-width="2" stroke-linecap="round" stroke-linejoin="round">
    <path d="M10 2v2" />
    <path d="M14 2v2" />
    <path d="M16 8a1 1 0 0 1 1 1v8a4 4 0 0 1-4 4H7a4 4 0 0 1-4-4V9a1 1 0 0 1 1-1h14a4 4 0 1 1 0 8h-1" />
    <path d="M6 2v2" />
  </g>
</svg>
